<?xml version="1.0" standalone="no"?>
<!DOCTYPE svg PUBLIC "-//W3C//DTD SVG 20010904//EN"
 "http://www.w3.org/TR/2001/REC-SVG-20010904/DTD/svg10.dtd">
<svg version="1.0" xmlns="http://www.w3.org/2000/svg"
 width="700.000000pt" height="700.000000pt" viewBox="0 0 700.000000 700.000000"
 preserveAspectRatio="xMidYMid meet">
<metadata>
Created by potrace 1.14, written by Peter Selinger 2001-2017
</metadata>
<g transform="translate(0.000000,700.000000) scale(0.100000,-0.100000)"
fill="#000000" stroke="none">
<path d="M1690 5903 c-63 -108 -116 -203 -118 -210 -2 -7 -9 -13 -15 -13 -7 0
-5 -4 3 -9 8 -5 243 -8 523 -7 279 0 507 -1 507 -4 0 -3 -21 -26 -46 -50 -95
-93 -266 -320 -340 -453 -256 -457 -386 -906 -422 -1460 -11 -160 -4 -457 13
-598 3 -19 7 -56 10 -84 18 -147 50 -316 91 -475 24 -92 86 -284 104 -325 5
-11 28 -65 52 -120 274 -641 727 -1056 1278 -1171 93 -19 331 -25 455 -11 233
27 484 126 670 265 75 56 216 198 276 277 190 253 330 614 384 990 3 23 7 50
9 61 2 11 7 54 11 95 3 41 8 85 10 99 2 14 7 98 10 188 l5 162 -235 0 c-129 0
-235 -3 -236 -7 0 -5 -2 -62 -4 -128 -5 -146 -13 -254 -30 -387 -14 -110 -15
-115 -36 -218 -59 -299 -190 -563 -355 -719 -143 -137 -295 -210 -499 -241
-80 -12 -243 -15 -300 -6 -16 3 -47 8 -68 11 -63 9 -187 54 -269 97 -184 98
-349 261 -486 479 -114 180 -237 497 -288 740 -18 86 -34 172 -39 209 -36 267
-40 325 -40 605 0 221 7 387 19 465 2 14 7 48 11 75 3 28 9 66 11 85 4 30 14
82 28 155 30 150 99 381 146 490 174 405 410 683 690 812 49 22 71 31 130 49
115 34 290 47 435 31 390 -42 681 -240 825 -563 26 -56 66 -174 74 -216 19
-93 25 -135 32 -203 11 -115 12 -130 13 -147 1 -17 18 -18 234 -15 l232 2 -1
70 c-10 727 -452 1297 -1139 1469 -210 53 -218 54 -1250 55 l-960 1 -115 -197z"/>
<path d="M3582 4147 l-153 -154 -252 0 c-142 0 -252 -4 -254 -9 -2 -5 -57
-101 -123 -214 -65 -112 -117 -206 -115 -209 3 -2 184 -4 404 -4 l400 1 127
-130 127 -129 36 34 c20 19 80 77 135 129 l98 95 577 1 c317 0 583 1 592 1 9
1 46 54 89 129 41 70 98 166 126 214 29 47 51 88 49 90 -2 1 -315 3 -697 2
l-693 -1 -153 154 c-84 84 -156 153 -160 153 -4 0 -76 -69 -160 -153z"/>
</g>
</svg>
