<?xml version="1.0" encoding="UTF-8"?>
<!DOCTYPE svg PUBLIC "-//W3C//DTD SVG 1.1//EN" "http://www.w3.org/Graphics/SVG/1.1/DTD/svg11.dtd">
<!-- Creator: CorelDRAW 2018 (64-Bit) -->
<svg xmlns="http://www.w3.org/2000/svg" xml:space="preserve" width="512px" height="78px" version="1.1" style="shape-rendering:geometricPrecision; text-rendering:geometricPrecision; image-rendering:optimizeQuality; fill-rule:evenodd; clip-rule:evenodd"
viewBox="0 0 49251000 7526000"
 xmlns:xlink="http://www.w3.org/1999/xlink">
 <defs>
  <style type="text/css">
   <![CDATA[
    .fil0 {fill:#272524}
    .fil1 {fill:#272524;fill-rule:nonzero}
   ]]>
  </style>
 </defs>
 <g id="Layer_x0020_1">
  <metadata id="CorelCorpID_0Corel-Layer"/>
  <path class="fil0" d="M199000 285000c-91000,157000 -168000,295000 -171000,305000 -3000,10000 -13000,19000 -22000,19000 -10000,0 -7000,5000 5000,13000 11000,7000 352000,11000 757000,10000 405000,0 735000,1000 735000,6000 0,4000 -31000,37000 -67000,72000 -137000,135000 -385000,464000 -492000,656000 -371000,662000 -560000,1313000 -612000,2116000 -16000,231000 -6000,662000 19000,866000 4000,28000 10000,81000 15000,122000 26000,213000 72000,458000 131000,688000 35000,133000 125000,411000 151000,471000 7000,16000 41000,94000 75000,174000 397000,928000 1054000,1530000 1852000,1696000 135000,28000 480000,37000 659000,16000 338000,-39000 702000,-182000 971000,-384000 109000,-81000 313000,-287000 400000,-401000 275000,-367000 478000,-890000 556000,-1434000 5000,-34000 10000,-73000 13000,-89000 3000,-16000 10000,-78000 16000,-137000 5000,-60000 12000,-124000 15000,-144000 3000,-20000 10000,-142000 14000,-272000l7000 -235000 -340000 0c-187000,0 -341000,4000 -342000,10000 0,7000 -3000,90000 -6000,186000 -7000,211000 -19000,368000 -43000,560000 -21000,160000 -22000,167000 -52000,316000 -86000,433000 -276000,816000 -515000,1042000 -207000,198000 -427000,304000 -723000,349000 -116000,17000 -352000,22000 -434000,9000 -24000,-5000 -68000,-12000 -99000,-16000 -91000,-13000 -271000,-78000 -390000,-141000 -266000,-142000 -505000,-378000 -704000,-694000 -165000,-260000 -343000,-720000 -417000,-1072000 -26000,-124000 -49000,-249000 -57000,-303000 -52000,-387000 -58000,-471000 -58000,-876000 0,-320000 11000,-561000 28000,-674000 3000,-20000 10000,-69000 16000,-109000 4000,-40000 13000,-95000 16000,-123000 6000,-43000 20000,-119000 40000,-224000 44000,-218000 144000,-552000 212000,-710000 252000,-587000 594000,-990000 1000000,-1177000 71000,-32000 103000,-45000 188000,-71000 167000,-49000 420000,-68000 630000,-45000 565000,61000 987000,348000 1196000,816000 37000,81000 95000,252000 107000,313000 27000,135000 36000,196000 46000,294000 16000,167000 18000,188000 19000,213000 2000,25000 26000,26000 339000,22000l336000 -3000 -1000 -101000c-15000,-1054000 -655000,-1880000 -1650000,-2129000 -305000,-77000 -316000,-78000 -1812000,-80000l-1390000 -1000 -167000 285000 0 0zm2741000 2545000l-222000 223000 -365000 0c-205000,0 -365000,6000 -368000,13000 -3000,7000 -82000,146000 -178000,310000 -94000,162000 -169000,298000 -166000,303000 4000,3000 266000,5000 585000,5000l579000 -1000 184000 188000 184000 187000 53000 -49000c29000,-28000 115000,-112000 195000,-187000l142000 -138000 836000 -1000c459000,0 845000,-1000 858000,-1000 13000,-2000 67000,-79000 129000,-187000 59000,-102000 142000,-241000 182000,-310000 42000,-68000 74000,-128000 71000,-131000 -3000,-1000 -456000,-4000 -1009000,-3000l-1005000 2000 -221000 -223000c-122000,-122000 -226000,-222000 -232000,-222000 -6000,0 -110000,100000 -232000,222000z"/>
  <path class="fil1" d="M14067000 4316000l0 1371000 -848000 0 0 -1371000 -1326000 -2290000 748000 0c74000,0 132000,18000 176000,53000 43000,34000 79000,79000 105000,134000l518000 1084000c41000,87000 80000,167000 115000,241000 35000,72000 66000,145000 93000,216000 25000,-72000 55000,-146000 90000,-219000 36000,-74000 73000,-153000 113000,-238000l513000 -1084000c10000,-22000 24000,-45000 41000,-66000 18000,-23000 38000,-43000 61000,-61000 22000,-18000 48000,-32000 78000,-43000 29000,-11000 61000,-17000 96000,-17000l753000 0 -1326000 2290000z"/>
  <polygon id="1" class="fil1" points="18406000,2026000 18406000,2679000 16905000,2679000 16905000,3533000 18055000,3533000 18055000,4160000 16905000,4160000 16905000,5034000 18406000,5034000 18406000,5687000 16051000,5687000 16051000,2026000 "/>
  <path id="2" class="fil1" d="M18994000 2026000l683000 0c74000,0 134000,17000 181000,50000 47000,35000 80000,79000 100000,134000l708000 1970000c32000,87000 65000,180000 97000,281000 33000,101000 63000,207000 92000,318000 23000,-111000 51000,-217000 82000,-318000 31000,-101000 61000,-194000 91000,-281000l703000 -1970000c17000,-47000 49000,-89000 98000,-127000 48000,-38000 108000,-57000 178000,-57000l688000 0 -1466000 3661000 -769000 0 -1466000 -3661000z"/>
  <path id="3" class="fil1" d="M26306000 5684000l-658000 0c-74000,0 -134000,-17000 -181000,-52000 -48000,-34000 -82000,-77000 -100000,-131000l-216000 -638000 -1391000 0 -216000 638000c-17000,47000 -49000,89000 -98000,126000 -48000,38000 -108000,57000 -178000,57000l-663000 0 1416000 -3660000 869000 0 1416000 3660000zm-2350000 -1399000l999000 0 -336000 -987000c-22000,-62000 -47000,-136000 -76000,-222000 -30000,-84000 -59000,-176000 -88000,-275000 -26000,101000 -54000,193000 -82000,280000 -29000,85000 -56000,160000 -81000,222000l-336000 982000z"/>
  <path id="4" class="fil1" d="M29137000 4331000l0 1353000 -848000 0 0 -3663000 1190000 0c264000,0 490000,28000 677000,82000 186000,55000 339000,131000 457000,228000 118000,97000 203000,212000 257000,345000 53000,132000 80000,277000 80000,432000 0,119000 -16000,232000 -48000,338000 -31000,105000 -78000,203000 -141000,293000 -63000,89000 -140000,169000 -231000,240000 -91000,71000 -197000,129000 -316000,174000 57000,28000 111000,63000 160000,105000 50000,42000 92000,93000 129000,153000l779000 1273000 -769000 0c-142000,0 -244000,-53000 -306000,-160000l-608000 -1062000c-27000,-47000 -57000,-81000 -93000,-101000 -36000,-20000 -87000,-30000 -153000,-30000l-216000 0zm0 -587000l342000 0c115000,0 214000,-16000 295000,-45000 81000,-29000 148000,-69000 199000,-121000 52000,-52000 90000,-113000 113000,-183000 24000,-69000 36000,-144000 36000,-224000 0,-161000 -52000,-286000 -157000,-377000 -105000,-90000 -267000,-135000 -486000,-135000l-342000 0 0 1085000z"/>
  <polygon id="5" class="fil1" points="32964000,5687000 32110000,5687000 32110000,2026000 32964000,2026000 "/>
  <path id="6" class="fil1" d="M36726000 2026000l0 306000c0,44000 -7000,87000 -21000,128000 -15000,42000 -35000,82000 -60000,119000l-1717000 2455000 1742000 0 0 653000 -2822000 0 0 -327000c0,-38000 7000,-76000 20000,-114000 14000,-38000 32000,-73000 56000,-105000l1722000 -2462000 -1657000 0 0 -653000 2737000 0z"/>
  <polygon id="7" class="fil1" points="40713000,5687000 39859000,5687000 39859000,4140000 38373000,4140000 38373000,5687000 37519000,5687000 37519000,2026000 38373000,2026000 38373000,3558000 39859000,3558000 39859000,2026000 40713000,2026000 "/>
  <path id="8" class="fil1" d="M42571000 3507000l136000 0c126000,0 216000,-39000 271000,-118000l824000 -1195000c45000,-65000 97000,-109000 155000,-133000 57000,-23000 128000,-35000 211000,-35000l738000 0 -1084000 1481000c-39000,53000 -79000,98000 -121000,133000 -42000,35000 -84000,64000 -128000,88000 64000,24000 122000,56000 175000,97000 53000,41000 101000,96000 144000,165000l1105000 1697000 -758000 0c-49000,0 -90000,-3000 -124000,-10000 -35000,-7000 -65000,-17000 -90000,-30000 -25000,-14000 -47000,-30000 -65000,-50000 -18000,-19000 -36000,-41000 -53000,-66000l-828000 -1273000c-31000,-47000 -68000,-80000 -114000,-99000 -46000,-20000 -109000,-29000 -188000,-29000l-206000 0 0 1557000 -848000 0 0 -3661000 848000 0 0 1481000z"/>
  <path id="9" class="fil1" d="M49251000 3855000c0,265000 -46000,511000 -137000,739000 -91000,228000 -220000,426000 -386000,594000 -165000,168000 -365000,301000 -598000,396000 -234000,95000 -493000,143000 -778000,143000 -284000,0 -544000,-48000 -778000,-143000 -234000,-95000 -434000,-228000 -601000,-396000 -167000,-168000 -295000,-366000 -387000,-594000 -91000,-228000 -137000,-474000 -137000,-739000 0,-265000 46000,-511000 137000,-738000 92000,-228000 220000,-426000 387000,-594000 167000,-167000 367000,-299000 601000,-394000 234000,-95000 494000,-143000 778000,-143000 285000,0 544000,48000 778000,145000 233000,96000 433000,227000 598000,395000 166000,168000 295000,366000 386000,593000 91000,228000 137000,473000 137000,736000zm-869000 2000c0,-181000 -24000,-344000 -71000,-489000 -46000,-145000 -113000,-267000 -201000,-368000 -88000,-100000 -196000,-177000 -323000,-231000 -127000,-53000 -272000,-80000 -435000,-80000 -164000,0 -309000,27000 -437000,80000 -128000,54000 -236000,131000 -324000,231000 -88000,101000 -156000,223000 -203000,368000 -47000,145000 -70000,308000 -70000,489000 0,182000 23000,345000 70000,490000 47000,145000 115000,268000 203000,368000 88000,101000 196000,177000 324000,230000 128000,52000 273000,79000 437000,79000 163000,0 308000,-27000 435000,-79000 127000,-53000 235000,-129000 323000,-230000 88000,-100000 155000,-223000 201000,-368000 47000,-145000 71000,-308000 71000,-490000z"/>
 </g>
</svg>
